<mxfile host="65bd71144e">
    <diagram id="h-a4Nocp_mSdexVuOLDs" name="tree">
        <mxGraphModel dx="1521" dy="-672" grid="1" gridSize="10" guides="1" tooltips="1" connect="1" arrows="1" fold="1" page="1" pageScale="1" pageWidth="827" pageHeight="1169" math="0" shadow="0">
            <root>
                <mxCell id="0"/>
                <mxCell id="1" parent="0"/>
                <mxCell id="21" value="" style="group" parent="1" vertex="1" connectable="0">
                    <mxGeometry x="-670" y="1330" width="160" height="140" as="geometry"/>
                </mxCell>
                <mxCell id="14" value="" style="rounded=1;whiteSpace=wrap;html=1;strokeColor=#FFFFFF;strokeWidth=1;fillColor=none;" parent="21" vertex="1">
                    <mxGeometry width="160" height="140" as="geometry"/>
                </mxCell>
                <mxCell id="15" value="GetSharedNode" style="text;html=1;strokeColor=none;fillColor=none;align=center;verticalAlign=middle;whiteSpace=wrap;rounded=0;" parent="21" vertex="1">
                    <mxGeometry x="20" width="120" height="30" as="geometry"/>
                </mxCell>
                <mxCell id="16" value="CreateTree" style="rounded=1;whiteSpace=wrap;html=1;" parent="21" vertex="1">
                    <mxGeometry x="20" y="55" width="120" height="60" as="geometry"/>
                </mxCell>
                <mxCell id="22" value="" style="group" parent="1" vertex="1" connectable="0">
                    <mxGeometry x="-473" y="1330" width="160" height="360" as="geometry"/>
                </mxCell>
                <mxCell id="3" value="" style="rounded=1;whiteSpace=wrap;html=1;strokeColor=#FFFFFF;strokeWidth=1;fillColor=none;" parent="22" vertex="1">
                    <mxGeometry width="160" height="360" as="geometry"/>
                </mxCell>
                <mxCell id="4" value="CreateTree" style="text;html=1;strokeColor=none;fillColor=none;align=center;verticalAlign=middle;whiteSpace=wrap;rounded=0;" parent="22" vertex="1">
                    <mxGeometry x="20" width="120" height="30" as="geometry"/>
                </mxCell>
                <mxCell id="5" value="FindSharedNode" style="rounded=1;whiteSpace=wrap;html=1;" parent="22" vertex="1">
                    <mxGeometry x="20" y="55" width="120" height="60" as="geometry"/>
                </mxCell>
                <mxCell id="6" value="CreateRoot" style="rounded=1;whiteSpace=wrap;html=1;" parent="22" vertex="1">
                    <mxGeometry x="20" y="165" width="120" height="60" as="geometry"/>
                </mxCell>
                <mxCell id="7" value="" style="edgeStyle=none;html=1;" parent="22" source="5" target="6" edge="1">
                    <mxGeometry relative="1" as="geometry"/>
                </mxCell>
                <mxCell id="8" value="CreateSubTree" style="rounded=1;whiteSpace=wrap;html=1;" parent="22" vertex="1">
                    <mxGeometry x="20" y="275" width="120" height="60" as="geometry"/>
                </mxCell>
                <mxCell id="9" value="" style="edgeStyle=none;html=1;" parent="22" source="6" target="8" edge="1">
                    <mxGeometry relative="1" as="geometry"/>
                </mxCell>
                <mxCell id="25" value="" style="group" parent="1" vertex="1" connectable="0">
                    <mxGeometry x="-280" y="1330" width="160" height="360" as="geometry"/>
                </mxCell>
                <mxCell id="26" value="" style="rounded=1;whiteSpace=wrap;html=1;strokeColor=#FFFFFF;strokeWidth=1;fillColor=none;" parent="25" vertex="1">
                    <mxGeometry width="160" height="360" as="geometry"/>
                </mxCell>
                <mxCell id="27" value="FindSharedNode" style="text;html=1;strokeColor=none;fillColor=none;align=center;verticalAlign=middle;whiteSpace=wrap;rounded=0;" parent="25" vertex="1">
                    <mxGeometry x="20" width="120" height="30" as="geometry"/>
                </mxCell>
                <mxCell id="28" value="path.py&lt;br&gt;CheckPathName" style="rounded=1;whiteSpace=wrap;html=1;" parent="25" vertex="1">
                    <mxGeometry x="20" y="55" width="120" height="60" as="geometry"/>
                </mxCell>
                <mxCell id="29" value="Node-&amp;gt;GetProperty" style="rounded=1;whiteSpace=wrap;html=1;" parent="25" vertex="1">
                    <mxGeometry x="20" y="165" width="120" height="60" as="geometry"/>
                </mxCell>
                <mxCell id="30" value="" style="edgeStyle=none;html=1;" parent="25" source="28" target="29" edge="1">
                    <mxGeometry relative="1" as="geometry"/>
                </mxCell>
                <mxCell id="31" value="Node-&amp;gt;GetAllDescendant" style="rounded=1;whiteSpace=wrap;html=1;" parent="25" vertex="1">
                    <mxGeometry x="20" y="275" width="120" height="60" as="geometry"/>
                </mxCell>
                <mxCell id="32" value="" style="edgeStyle=none;html=1;" parent="25" source="29" target="31" edge="1">
                    <mxGeometry relative="1" as="geometry"/>
                </mxCell>
                <mxCell id="42" value="" style="group" parent="1" vertex="1" connectable="0">
                    <mxGeometry x="-280" y="1720" width="160" height="140" as="geometry"/>
                </mxCell>
                <mxCell id="34" value="" style="rounded=1;whiteSpace=wrap;html=1;strokeColor=#FFFFFF;strokeWidth=1;fillColor=none;" parent="42" vertex="1">
                    <mxGeometry width="160" height="140" as="geometry"/>
                </mxCell>
                <mxCell id="35" value="CreateRoot" style="text;html=1;strokeColor=none;fillColor=none;align=center;verticalAlign=middle;whiteSpace=wrap;rounded=0;" parent="42" vertex="1">
                    <mxGeometry x="20" width="120" height="30" as="geometry"/>
                </mxCell>
                <mxCell id="36" value="CreateNode" style="rounded=1;whiteSpace=wrap;html=1;" parent="42" vertex="1">
                    <mxGeometry x="20" y="55" width="120" height="60" as="geometry"/>
                </mxCell>
                <mxCell id="51" value="" style="group" parent="1" vertex="1" connectable="0">
                    <mxGeometry x="-280" y="1890" width="160" height="140" as="geometry"/>
                </mxCell>
                <mxCell id="52" value="" style="rounded=1;whiteSpace=wrap;html=1;strokeColor=#FFFFFF;strokeWidth=1;fillColor=none;" parent="51" vertex="1">
                    <mxGeometry width="160" height="140" as="geometry"/>
                </mxCell>
                <mxCell id="53" value="CreateSubTree" style="text;html=1;strokeColor=none;fillColor=none;align=center;verticalAlign=middle;whiteSpace=wrap;rounded=0;" parent="51" vertex="1">
                    <mxGeometry x="20" width="120" height="30" as="geometry"/>
                </mxCell>
                <mxCell id="54" value="Node-&amp;gt;CreateSubTree" style="rounded=1;whiteSpace=wrap;html=1;" parent="51" vertex="1">
                    <mxGeometry x="20" y="55" width="120" height="60" as="geometry"/>
                </mxCell>
                <mxCell id="s7KirTJ_icr2mQzr07DT-54" value="" style="group" parent="1" vertex="1" connectable="0">
                    <mxGeometry x="-80" y="1720" width="160" height="140" as="geometry"/>
                </mxCell>
                <mxCell id="s7KirTJ_icr2mQzr07DT-55" value="" style="rounded=1;whiteSpace=wrap;html=1;strokeColor=#FFFFFF;strokeWidth=1;fillColor=none;" parent="s7KirTJ_icr2mQzr07DT-54" vertex="1">
                    <mxGeometry width="160" height="140" as="geometry"/>
                </mxCell>
                <mxCell id="s7KirTJ_icr2mQzr07DT-56" value="CreateNode" style="text;html=1;strokeColor=none;fillColor=none;align=center;verticalAlign=middle;whiteSpace=wrap;rounded=0;" parent="s7KirTJ_icr2mQzr07DT-54" vertex="1">
                    <mxGeometry x="20" width="120" height="30" as="geometry"/>
                </mxCell>
                <mxCell id="s7KirTJ_icr2mQzr07DT-59" value="" style="strokeWidth=2;html=1;shape=mxgraph.flowchart.terminator;whiteSpace=wrap;" parent="s7KirTJ_icr2mQzr07DT-54" vertex="1">
                    <mxGeometry x="40" y="60" width="80" height="40" as="geometry"/>
                </mxCell>
            </root>
        </mxGraphModel>
    </diagram>
    <diagram id="zHYQsWyXlDeMDFawrSVR" name="path">
        <mxGraphModel dx="694" dy="-672" grid="1" gridSize="10" guides="1" tooltips="1" connect="1" arrows="1" fold="1" page="1" pageScale="1" pageWidth="827" pageHeight="1169" math="0" shadow="0">
            <root>
                <mxCell id="0"/>
                <mxCell id="1" parent="0"/>
                <mxCell id="H5WZWkjRg_ecHuYnrriV-1" value="" style="group" parent="1" vertex="1" connectable="0">
                    <mxGeometry x="70" y="1220" width="160" height="360" as="geometry"/>
                </mxCell>
                <mxCell id="H5WZWkjRg_ecHuYnrriV-2" value="" style="rounded=1;whiteSpace=wrap;html=1;strokeColor=#FFFFFF;strokeWidth=1;fillColor=none;" parent="H5WZWkjRg_ecHuYnrriV-1" vertex="1">
                    <mxGeometry width="160" height="360" as="geometry"/>
                </mxCell>
                <mxCell id="H5WZWkjRg_ecHuYnrriV-3" value="CheckPathName" style="text;html=1;strokeColor=none;fillColor=none;align=center;verticalAlign=middle;whiteSpace=wrap;rounded=0;" parent="H5WZWkjRg_ecHuYnrriV-1" vertex="1">
                    <mxGeometry x="20" width="120" height="30" as="geometry"/>
                </mxCell>
                <mxCell id="H5WZWkjRg_ecHuYnrriV-4" value="CheckAt" style="rounded=1;whiteSpace=wrap;html=1;" parent="H5WZWkjRg_ecHuYnrriV-1" vertex="1">
                    <mxGeometry x="20" y="55" width="120" height="60" as="geometry"/>
                </mxCell>
                <mxCell id="H5WZWkjRg_ecHuYnrriV-5" value="CheckSep" style="rounded=1;whiteSpace=wrap;html=1;" parent="H5WZWkjRg_ecHuYnrriV-1" vertex="1">
                    <mxGeometry x="20" y="165" width="120" height="60" as="geometry"/>
                </mxCell>
                <mxCell id="H5WZWkjRg_ecHuYnrriV-6" value="" style="edgeStyle=none;html=1;" parent="H5WZWkjRg_ecHuYnrriV-1" source="H5WZWkjRg_ecHuYnrriV-4" target="H5WZWkjRg_ecHuYnrriV-5" edge="1">
                    <mxGeometry relative="1" as="geometry"/>
                </mxCell>
                <mxCell id="H5WZWkjRg_ecHuYnrriV-7" value="GetDir" style="rounded=1;whiteSpace=wrap;html=1;" parent="H5WZWkjRg_ecHuYnrriV-1" vertex="1">
                    <mxGeometry x="20" y="275" width="120" height="60" as="geometry"/>
                </mxCell>
                <mxCell id="H5WZWkjRg_ecHuYnrriV-8" value="" style="edgeStyle=none;html=1;" parent="H5WZWkjRg_ecHuYnrriV-1" source="H5WZWkjRg_ecHuYnrriV-5" target="H5WZWkjRg_ecHuYnrriV-7" edge="1">
                    <mxGeometry relative="1" as="geometry"/>
                </mxCell>
                <mxCell id="uGKoQcNfZLZFq-6dS-CS-18" value="" style="group" parent="1" vertex="1" connectable="0">
                    <mxGeometry x="270" y="1390" width="160" height="140" as="geometry"/>
                </mxCell>
                <mxCell id="uGKoQcNfZLZFq-6dS-CS-11" value="" style="rounded=1;whiteSpace=wrap;html=1;strokeColor=#FFFFFF;strokeWidth=1;fillColor=none;" parent="uGKoQcNfZLZFq-6dS-CS-18" vertex="1">
                    <mxGeometry width="160" height="140" as="geometry"/>
                </mxCell>
                <mxCell id="uGKoQcNfZLZFq-6dS-CS-12" value="CheckSep" style="text;html=1;strokeColor=none;fillColor=none;align=center;verticalAlign=middle;whiteSpace=wrap;rounded=0;" parent="uGKoQcNfZLZFq-6dS-CS-18" vertex="1">
                    <mxGeometry x="20" width="120" height="30" as="geometry"/>
                </mxCell>
                <mxCell id="uGKoQcNfZLZFq-6dS-CS-13" value="GetPrefixToCheck" style="rounded=1;whiteSpace=wrap;html=1;" parent="uGKoQcNfZLZFq-6dS-CS-18" vertex="1">
                    <mxGeometry x="20" y="55" width="120" height="60" as="geometry"/>
                </mxCell>
                <mxCell id="uGKoQcNfZLZFq-6dS-CS-20" value="" style="group" parent="1" vertex="1" connectable="0">
                    <mxGeometry x="270" y="1560" width="160" height="360" as="geometry"/>
                </mxCell>
                <mxCell id="uGKoQcNfZLZFq-6dS-CS-21" value="" style="rounded=1;whiteSpace=wrap;html=1;strokeColor=#FFFFFF;strokeWidth=1;fillColor=none;" parent="uGKoQcNfZLZFq-6dS-CS-20" vertex="1">
                    <mxGeometry width="160" height="360" as="geometry"/>
                </mxCell>
                <mxCell id="uGKoQcNfZLZFq-6dS-CS-22" value="GetDir" style="text;html=1;strokeColor=none;fillColor=none;align=center;verticalAlign=middle;whiteSpace=wrap;rounded=0;" parent="uGKoQcNfZLZFq-6dS-CS-20" vertex="1">
                    <mxGeometry x="20" width="120" height="30" as="geometry"/>
                </mxCell>
                <mxCell id="uGKoQcNfZLZFq-6dS-CS-23" value="GetHome" style="rounded=1;whiteSpace=wrap;html=1;" parent="uGKoQcNfZLZFq-6dS-CS-20" vertex="1">
                    <mxGeometry x="20" y="55" width="120" height="60" as="geometry"/>
                </mxCell>
                <mxCell id="uGKoQcNfZLZFq-6dS-CS-24" value="CheckPathName" style="rounded=1;whiteSpace=wrap;html=1;" parent="uGKoQcNfZLZFq-6dS-CS-20" vertex="1">
                    <mxGeometry x="20" y="165" width="120" height="60" as="geometry"/>
                </mxCell>
                <mxCell id="uGKoQcNfZLZFq-6dS-CS-25" value="" style="edgeStyle=none;html=1;" parent="uGKoQcNfZLZFq-6dS-CS-20" source="uGKoQcNfZLZFq-6dS-CS-23" target="uGKoQcNfZLZFq-6dS-CS-24" edge="1">
                    <mxGeometry relative="1" as="geometry"/>
                </mxCell>
                <mxCell id="uGKoQcNfZLZFq-6dS-CS-26" value="GetNewPath" style="rounded=1;whiteSpace=wrap;html=1;" parent="uGKoQcNfZLZFq-6dS-CS-20" vertex="1">
                    <mxGeometry x="20" y="275" width="120" height="60" as="geometry"/>
                </mxCell>
                <mxCell id="uGKoQcNfZLZFq-6dS-CS-27" value="" style="edgeStyle=none;html=1;" parent="uGKoQcNfZLZFq-6dS-CS-20" source="uGKoQcNfZLZFq-6dS-CS-24" target="uGKoQcNfZLZFq-6dS-CS-26" edge="1">
                    <mxGeometry relative="1" as="geometry"/>
                </mxCell>
                <mxCell id="uGKoQcNfZLZFq-6dS-CS-36" value="" style="group" parent="1" vertex="1" connectable="0">
                    <mxGeometry x="470" y="1390" width="160" height="140" as="geometry"/>
                </mxCell>
                <mxCell id="uGKoQcNfZLZFq-6dS-CS-29" value="" style="rounded=1;whiteSpace=wrap;html=1;strokeColor=#FFFFFF;strokeWidth=1;fillColor=none;" parent="uGKoQcNfZLZFq-6dS-CS-36" vertex="1">
                    <mxGeometry width="160" height="140" as="geometry"/>
                </mxCell>
                <mxCell id="uGKoQcNfZLZFq-6dS-CS-30" value="GetPrefixToCheck" style="text;html=1;strokeColor=none;fillColor=none;align=center;verticalAlign=middle;whiteSpace=wrap;rounded=0;" parent="uGKoQcNfZLZFq-6dS-CS-36" vertex="1">
                    <mxGeometry x="20" width="120" height="30" as="geometry"/>
                </mxCell>
                <mxCell id="uGKoQcNfZLZFq-6dS-CS-31" value="" style="strokeWidth=2;html=1;shape=mxgraph.flowchart.terminator;whiteSpace=wrap;" parent="uGKoQcNfZLZFq-6dS-CS-36" vertex="1">
                    <mxGeometry x="45" y="60" width="70" height="40" as="geometry"/>
                </mxCell>
                <mxCell id="uGKoQcNfZLZFq-6dS-CS-37" value="" style="group" parent="1" vertex="1" connectable="0">
                    <mxGeometry x="470" y="1560" width="160" height="140" as="geometry"/>
                </mxCell>
                <mxCell id="uGKoQcNfZLZFq-6dS-CS-33" value="" style="rounded=1;whiteSpace=wrap;html=1;strokeColor=#FFFFFF;strokeWidth=1;fillColor=none;" parent="uGKoQcNfZLZFq-6dS-CS-37" vertex="1">
                    <mxGeometry width="160" height="140" as="geometry"/>
                </mxCell>
                <mxCell id="uGKoQcNfZLZFq-6dS-CS-34" value="GetHome" style="text;html=1;strokeColor=none;fillColor=none;align=center;verticalAlign=middle;whiteSpace=wrap;rounded=0;" parent="uGKoQcNfZLZFq-6dS-CS-37" vertex="1">
                    <mxGeometry x="20" width="120" height="30" as="geometry"/>
                </mxCell>
                <mxCell id="uGKoQcNfZLZFq-6dS-CS-35" value="" style="strokeWidth=2;html=1;shape=mxgraph.flowchart.terminator;whiteSpace=wrap;" parent="uGKoQcNfZLZFq-6dS-CS-37" vertex="1">
                    <mxGeometry x="45" y="60" width="70" height="40" as="geometry"/>
                </mxCell>
                <mxCell id="uGKoQcNfZLZFq-6dS-CS-38" value="" style="group" parent="1" vertex="1" connectable="0">
                    <mxGeometry x="270" y="1220" width="160" height="140" as="geometry"/>
                </mxCell>
                <mxCell id="uGKoQcNfZLZFq-6dS-CS-2" value="" style="rounded=1;whiteSpace=wrap;html=1;strokeColor=#FFFFFF;strokeWidth=1;fillColor=none;" parent="uGKoQcNfZLZFq-6dS-CS-38" vertex="1">
                    <mxGeometry width="160" height="140" as="geometry"/>
                </mxCell>
                <mxCell id="uGKoQcNfZLZFq-6dS-CS-3" value="CheckAt" style="text;html=1;strokeColor=none;fillColor=none;align=center;verticalAlign=middle;whiteSpace=wrap;rounded=0;" parent="uGKoQcNfZLZFq-6dS-CS-38" vertex="1">
                    <mxGeometry x="20" width="120" height="30" as="geometry"/>
                </mxCell>
                <mxCell id="uGKoQcNfZLZFq-6dS-CS-9" value="" style="strokeWidth=2;html=1;shape=mxgraph.flowchart.terminator;whiteSpace=wrap;" parent="uGKoQcNfZLZFq-6dS-CS-38" vertex="1">
                    <mxGeometry x="45" y="60" width="70" height="40" as="geometry"/>
                </mxCell>
            </root>
        </mxGraphModel>
    </diagram>
    <diagram id="5suyRhZuB_ZwRJqBTGma" name="Temp">
        <mxGraphModel dx="1521" dy="-672" grid="1" gridSize="10" guides="1" tooltips="1" connect="1" arrows="1" fold="1" page="1" pageScale="1" pageWidth="827" pageHeight="1169" math="0" shadow="0">
            <root>
                <mxCell id="0"/>
                <mxCell id="1" parent="0"/>
                <mxCell id="_d4wk9xI-CRVXsDyTu2i-34" value="" style="edgeStyle=none;html=1;" parent="1" source="3DcZCwgH5VwuqICERHei-2" target="3DcZCwgH5VwuqICERHei-4" edge="1">
                    <mxGeometry relative="1" as="geometry"/>
                </mxCell>
                <mxCell id="3DcZCwgH5VwuqICERHei-2" value="&lt;meta charset=&quot;utf-8&quot;&gt;&lt;span style=&quot;color: rgb(240, 240, 240); font-family: Helvetica; font-size: 12px; font-style: normal; font-variant-ligatures: normal; font-variant-caps: normal; font-weight: 400; letter-spacing: normal; orphans: 2; text-align: center; text-indent: 0px; text-transform: none; widows: 2; word-spacing: 0px; -webkit-text-stroke-width: 0px; background-color: rgb(42, 37, 47); text-decoration-thickness: initial; text-decoration-style: initial; text-decoration-color: initial; float: none; display: inline !important;&quot;&gt;GetSharedNode&lt;/span&gt;" style="rounded=1;whiteSpace=wrap;html=1;strokeColor=#FFFFFF;strokeWidth=1;fillColor=none;container=0;" parent="1" vertex="1">
                    <mxGeometry x="-790" y="1270" width="160" height="50" as="geometry"/>
                </mxCell>
                <mxCell id="_d4wk9xI-CRVXsDyTu2i-35" value="" style="edgeStyle=none;html=1;" parent="1" source="3DcZCwgH5VwuqICERHei-4" target="3DcZCwgH5VwuqICERHei-8" edge="1">
                    <mxGeometry relative="1" as="geometry"/>
                </mxCell>
                <mxCell id="3DcZCwgH5VwuqICERHei-4" value="CreateTree" style="rounded=1;whiteSpace=wrap;html=1;container=0;" parent="1" vertex="1">
                    <mxGeometry x="-550" y="1270" width="120" height="60" as="geometry"/>
                </mxCell>
                <mxCell id="3DcZCwgH5VwuqICERHei-8" value="FindSharedNode" style="rounded=1;whiteSpace=wrap;html=1;container=0;" parent="1" vertex="1">
                    <mxGeometry x="-350" y="1270" width="120" height="60" as="geometry"/>
                </mxCell>
                <mxCell id="_d4wk9xI-CRVXsDyTu2i-37" style="edgeStyle=none;html=1;entryX=0.426;entryY=0.017;entryDx=0;entryDy=0;entryPerimeter=0;" parent="1" source="3DcZCwgH5VwuqICERHei-9" target="3DcZCwgH5VwuqICERHei-24" edge="1">
                    <mxGeometry relative="1" as="geometry"/>
                </mxCell>
                <mxCell id="3DcZCwgH5VwuqICERHei-9" value="CreateRoot" style="rounded=1;whiteSpace=wrap;html=1;container=0;" parent="1" vertex="1">
                    <mxGeometry x="-160" y="1270" width="120" height="60" as="geometry"/>
                </mxCell>
                <mxCell id="3DcZCwgH5VwuqICERHei-10" value="" style="edgeStyle=none;html=1;" parent="1" source="3DcZCwgH5VwuqICERHei-8" target="3DcZCwgH5VwuqICERHei-9" edge="1">
                    <mxGeometry relative="1" as="geometry"/>
                </mxCell>
                <mxCell id="3DcZCwgH5VwuqICERHei-11" value="CreateSubTree" style="rounded=1;whiteSpace=wrap;html=1;container=0;" parent="1" vertex="1">
                    <mxGeometry x="43" y="1270" width="120" height="60" as="geometry"/>
                </mxCell>
                <mxCell id="3DcZCwgH5VwuqICERHei-14" value="" style="rounded=1;whiteSpace=wrap;html=1;strokeColor=#FFFFFF;strokeWidth=1;fillColor=none;container=0;" parent="1" vertex="1">
                    <mxGeometry x="163" y="1910" width="160" height="360" as="geometry"/>
                </mxCell>
                <mxCell id="3DcZCwgH5VwuqICERHei-15" value="FindSharedNode" style="text;html=1;strokeColor=none;fillColor=none;align=center;verticalAlign=middle;whiteSpace=wrap;rounded=0;container=0;" parent="1" vertex="1">
                    <mxGeometry x="183" y="1910" width="120" height="30" as="geometry"/>
                </mxCell>
                <mxCell id="3DcZCwgH5VwuqICERHei-16" value="path.py&lt;br&gt;CheckPathName" style="rounded=1;whiteSpace=wrap;html=1;container=0;" parent="1" vertex="1">
                    <mxGeometry x="183" y="1965" width="120" height="60" as="geometry"/>
                </mxCell>
                <mxCell id="3DcZCwgH5VwuqICERHei-17" value="Node-&amp;gt;GetProperty" style="rounded=1;whiteSpace=wrap;html=1;container=0;" parent="1" vertex="1">
                    <mxGeometry x="183" y="2075" width="120" height="60" as="geometry"/>
                </mxCell>
                <mxCell id="3DcZCwgH5VwuqICERHei-18" value="" style="edgeStyle=none;html=1;" parent="1" source="3DcZCwgH5VwuqICERHei-16" target="3DcZCwgH5VwuqICERHei-17" edge="1">
                    <mxGeometry relative="1" as="geometry"/>
                </mxCell>
                <mxCell id="3DcZCwgH5VwuqICERHei-19" value="Node-&amp;gt;GetAllDescendant" style="rounded=1;whiteSpace=wrap;html=1;container=0;" parent="1" vertex="1">
                    <mxGeometry x="183" y="2185" width="120" height="60" as="geometry"/>
                </mxCell>
                <mxCell id="3DcZCwgH5VwuqICERHei-20" value="" style="edgeStyle=none;html=1;" parent="1" source="3DcZCwgH5VwuqICERHei-17" target="3DcZCwgH5VwuqICERHei-19" edge="1">
                    <mxGeometry relative="1" as="geometry"/>
                </mxCell>
                <mxCell id="_d4wk9xI-CRVXsDyTu2i-38" style="edgeStyle=none;html=1;entryX=0.06;entryY=1.05;entryDx=0;entryDy=0;entryPerimeter=0;" parent="1" source="3DcZCwgH5VwuqICERHei-24" target="3DcZCwgH5VwuqICERHei-11" edge="1">
                    <mxGeometry relative="1" as="geometry"/>
                </mxCell>
                <mxCell id="3DcZCwgH5VwuqICERHei-24" value="CreateNode" style="rounded=1;whiteSpace=wrap;html=1;container=0;" parent="1" vertex="1">
                    <mxGeometry x="-110" y="1390" width="120" height="60" as="geometry"/>
                </mxCell>
                <mxCell id="3DcZCwgH5VwuqICERHei-26" value="" style="rounded=1;whiteSpace=wrap;html=1;strokeColor=#FFFFFF;strokeWidth=1;fillColor=none;container=0;" parent="1" vertex="1">
                    <mxGeometry x="-280" y="1890" width="160" height="140" as="geometry"/>
                </mxCell>
                <mxCell id="3DcZCwgH5VwuqICERHei-27" value="CreateSubTree" style="text;html=1;strokeColor=none;fillColor=none;align=center;verticalAlign=middle;whiteSpace=wrap;rounded=0;container=0;" parent="1" vertex="1">
                    <mxGeometry x="-260" y="1890" width="120" height="30" as="geometry"/>
                </mxCell>
                <mxCell id="3DcZCwgH5VwuqICERHei-28" value="Node-&amp;gt;CreateSubTree" style="rounded=1;whiteSpace=wrap;html=1;container=0;" parent="1" vertex="1">
                    <mxGeometry x="-260" y="1945" width="120" height="60" as="geometry"/>
                </mxCell>
                <mxCell id="3DcZCwgH5VwuqICERHei-30" value="" style="rounded=1;whiteSpace=wrap;html=1;strokeColor=#FFFFFF;strokeWidth=1;fillColor=none;container=0;" parent="1" vertex="1">
                    <mxGeometry x="363" y="2300" width="160" height="140" as="geometry"/>
                </mxCell>
                <mxCell id="3DcZCwgH5VwuqICERHei-31" value="CreateNode" style="text;html=1;strokeColor=none;fillColor=none;align=center;verticalAlign=middle;whiteSpace=wrap;rounded=0;container=0;" parent="1" vertex="1">
                    <mxGeometry x="383" y="2300" width="120" height="30" as="geometry"/>
                </mxCell>
                <mxCell id="3DcZCwgH5VwuqICERHei-32" value="" style="strokeWidth=2;html=1;shape=mxgraph.flowchart.terminator;whiteSpace=wrap;container=0;" parent="1" vertex="1">
                    <mxGeometry x="403" y="2360" width="80" height="40" as="geometry"/>
                </mxCell>
                <mxCell id="_d4wk9xI-CRVXsDyTu2i-2" value="" style="rounded=1;whiteSpace=wrap;html=1;strokeColor=#FFFFFF;strokeWidth=1;fillColor=none;container=0;" parent="1" vertex="1">
                    <mxGeometry x="-650" y="2000" width="160" height="360" as="geometry"/>
                </mxCell>
                <mxCell id="_d4wk9xI-CRVXsDyTu2i-3" value="CheckPathName" style="text;html=1;strokeColor=none;fillColor=none;align=center;verticalAlign=middle;whiteSpace=wrap;rounded=0;container=0;" parent="1" vertex="1">
                    <mxGeometry x="-630" y="2000" width="120" height="30" as="geometry"/>
                </mxCell>
                <mxCell id="_d4wk9xI-CRVXsDyTu2i-4" value="CheckAt" style="rounded=1;whiteSpace=wrap;html=1;container=0;" parent="1" vertex="1">
                    <mxGeometry x="-630" y="2055" width="120" height="60" as="geometry"/>
                </mxCell>
                <mxCell id="_d4wk9xI-CRVXsDyTu2i-5" value="CheckSep" style="rounded=1;whiteSpace=wrap;html=1;container=0;" parent="1" vertex="1">
                    <mxGeometry x="-630" y="2165" width="120" height="60" as="geometry"/>
                </mxCell>
                <mxCell id="_d4wk9xI-CRVXsDyTu2i-6" value="" style="edgeStyle=none;html=1;" parent="1" source="_d4wk9xI-CRVXsDyTu2i-4" target="_d4wk9xI-CRVXsDyTu2i-5" edge="1">
                    <mxGeometry relative="1" as="geometry"/>
                </mxCell>
                <mxCell id="_d4wk9xI-CRVXsDyTu2i-7" value="GetDir" style="rounded=1;whiteSpace=wrap;html=1;container=0;" parent="1" vertex="1">
                    <mxGeometry x="-630" y="2275" width="120" height="60" as="geometry"/>
                </mxCell>
                <mxCell id="_d4wk9xI-CRVXsDyTu2i-8" value="" style="edgeStyle=none;html=1;" parent="1" source="_d4wk9xI-CRVXsDyTu2i-5" target="_d4wk9xI-CRVXsDyTu2i-7" edge="1">
                    <mxGeometry relative="1" as="geometry"/>
                </mxCell>
                <mxCell id="_d4wk9xI-CRVXsDyTu2i-10" value="" style="rounded=1;whiteSpace=wrap;html=1;strokeColor=#FFFFFF;strokeWidth=1;fillColor=none;container=0;" parent="1" vertex="1">
                    <mxGeometry x="-450" y="2170" width="160" height="140" as="geometry"/>
                </mxCell>
                <mxCell id="_d4wk9xI-CRVXsDyTu2i-11" value="CheckSep" style="text;html=1;strokeColor=none;fillColor=none;align=center;verticalAlign=middle;whiteSpace=wrap;rounded=0;container=0;" parent="1" vertex="1">
                    <mxGeometry x="-430" y="2170" width="120" height="30" as="geometry"/>
                </mxCell>
                <mxCell id="_d4wk9xI-CRVXsDyTu2i-12" value="GetPrefixToCheck" style="rounded=1;whiteSpace=wrap;html=1;container=0;" parent="1" vertex="1">
                    <mxGeometry x="-430" y="2225" width="120" height="60" as="geometry"/>
                </mxCell>
                <mxCell id="_d4wk9xI-CRVXsDyTu2i-14" value="" style="rounded=1;whiteSpace=wrap;html=1;strokeColor=#FFFFFF;strokeWidth=1;fillColor=none;container=0;" parent="1" vertex="1">
                    <mxGeometry x="-450" y="2340" width="160" height="360" as="geometry"/>
                </mxCell>
                <mxCell id="_d4wk9xI-CRVXsDyTu2i-15" value="GetDir" style="text;html=1;strokeColor=none;fillColor=none;align=center;verticalAlign=middle;whiteSpace=wrap;rounded=0;container=0;" parent="1" vertex="1">
                    <mxGeometry x="-430" y="2340" width="120" height="30" as="geometry"/>
                </mxCell>
                <mxCell id="_d4wk9xI-CRVXsDyTu2i-16" value="GetHome" style="rounded=1;whiteSpace=wrap;html=1;container=0;" parent="1" vertex="1">
                    <mxGeometry x="-430" y="2395" width="120" height="60" as="geometry"/>
                </mxCell>
                <mxCell id="_d4wk9xI-CRVXsDyTu2i-17" value="CheckPathName" style="rounded=1;whiteSpace=wrap;html=1;container=0;" parent="1" vertex="1">
                    <mxGeometry x="-430" y="2505" width="120" height="60" as="geometry"/>
                </mxCell>
                <mxCell id="_d4wk9xI-CRVXsDyTu2i-18" value="" style="edgeStyle=none;html=1;" parent="1" source="_d4wk9xI-CRVXsDyTu2i-16" target="_d4wk9xI-CRVXsDyTu2i-17" edge="1">
                    <mxGeometry relative="1" as="geometry"/>
                </mxCell>
                <mxCell id="_d4wk9xI-CRVXsDyTu2i-19" value="GetNewPath" style="rounded=1;whiteSpace=wrap;html=1;container=0;" parent="1" vertex="1">
                    <mxGeometry x="-430" y="2615" width="120" height="60" as="geometry"/>
                </mxCell>
                <mxCell id="_d4wk9xI-CRVXsDyTu2i-20" value="" style="edgeStyle=none;html=1;" parent="1" source="_d4wk9xI-CRVXsDyTu2i-17" target="_d4wk9xI-CRVXsDyTu2i-19" edge="1">
                    <mxGeometry relative="1" as="geometry"/>
                </mxCell>
                <mxCell id="_d4wk9xI-CRVXsDyTu2i-22" value="" style="rounded=1;whiteSpace=wrap;html=1;strokeColor=#FFFFFF;strokeWidth=1;fillColor=none;container=0;" parent="1" vertex="1">
                    <mxGeometry x="-250" y="2170" width="160" height="140" as="geometry"/>
                </mxCell>
                <mxCell id="_d4wk9xI-CRVXsDyTu2i-23" value="GetPrefixToCheck" style="text;html=1;strokeColor=none;fillColor=none;align=center;verticalAlign=middle;whiteSpace=wrap;rounded=0;container=0;" parent="1" vertex="1">
                    <mxGeometry x="-230" y="2170" width="120" height="30" as="geometry"/>
                </mxCell>
                <mxCell id="_d4wk9xI-CRVXsDyTu2i-24" value="" style="strokeWidth=2;html=1;shape=mxgraph.flowchart.terminator;whiteSpace=wrap;container=0;" parent="1" vertex="1">
                    <mxGeometry x="-205" y="2230" width="70" height="40" as="geometry"/>
                </mxCell>
                <mxCell id="_d4wk9xI-CRVXsDyTu2i-26" value="" style="rounded=1;whiteSpace=wrap;html=1;strokeColor=#FFFFFF;strokeWidth=1;fillColor=none;container=0;" parent="1" vertex="1">
                    <mxGeometry x="-250" y="2340" width="160" height="140" as="geometry"/>
                </mxCell>
                <mxCell id="_d4wk9xI-CRVXsDyTu2i-27" value="GetHome" style="text;html=1;strokeColor=none;fillColor=none;align=center;verticalAlign=middle;whiteSpace=wrap;rounded=0;container=0;" parent="1" vertex="1">
                    <mxGeometry x="-230" y="2340" width="120" height="30" as="geometry"/>
                </mxCell>
                <mxCell id="_d4wk9xI-CRVXsDyTu2i-28" value="" style="strokeWidth=2;html=1;shape=mxgraph.flowchart.terminator;whiteSpace=wrap;container=0;" parent="1" vertex="1">
                    <mxGeometry x="-205" y="2400" width="70" height="40" as="geometry"/>
                </mxCell>
                <mxCell id="_d4wk9xI-CRVXsDyTu2i-30" value="" style="rounded=1;whiteSpace=wrap;html=1;strokeColor=#FFFFFF;strokeWidth=1;fillColor=none;container=0;" parent="1" vertex="1">
                    <mxGeometry x="-450" y="2000" width="160" height="140" as="geometry"/>
                </mxCell>
                <mxCell id="_d4wk9xI-CRVXsDyTu2i-31" value="CheckAt" style="text;html=1;strokeColor=none;fillColor=none;align=center;verticalAlign=middle;whiteSpace=wrap;rounded=0;container=0;" parent="1" vertex="1">
                    <mxGeometry x="-430" y="2000" width="120" height="30" as="geometry"/>
                </mxCell>
                <mxCell id="_d4wk9xI-CRVXsDyTu2i-32" value="" style="strokeWidth=2;html=1;shape=mxgraph.flowchart.terminator;whiteSpace=wrap;container=0;" parent="1" vertex="1">
                    <mxGeometry x="-405" y="2060" width="70" height="40" as="geometry"/>
                </mxCell>
            </root>
        </mxGraphModel>
    </diagram>
</mxfile>